<?xml version="1.0" encoding="UTF-8" standalone="no"?>
<svg
   width="60"
   height="60"
   viewBox="0 0 60 60"
   fill="none"
   version="1.1"
   id="svg4"
   sodipodi:docname="onlyoffice_doc.svg"
   inkscape:version="1.4.2 (ebf0e940d0, 2025-05-08)"
   xmlns:inkscape="http://www.inkscape.org/namespaces/inkscape"
   xmlns:sodipodi="http://sodipodi.sourceforge.net/DTD/sodipodi-0.dtd"
   xmlns="http://www.w3.org/2000/svg"
   xmlns:svg="http://www.w3.org/2000/svg">
  <defs
     id="defs4">
    <filter
       inkscape:collect="always"
       style="color-interpolation-filters:sRGB"
       id="filter7"
       x="-0.038085714"
       y="-0.082984613"
       width="1.0761714"
       height="1.1659692">
      <feGaussianBlur
         inkscape:collect="always"
         stdDeviation="0.48321251"
         id="feGaussianBlur7" />
    </filter>
    <filter
       inkscape:collect="always"
       style="color-interpolation-filters:sRGB"
       id="filter8"
       x="-0.037837194"
       y="-0.11743899"
       width="1.0756744"
       height="1.234878">
      <feGaussianBlur
         inkscape:collect="always"
         stdDeviation="0.48321251"
         id="feGaussianBlur8" />
    </filter>
    <filter
       inkscape:collect="always"
       style="color-interpolation-filters:sRGB"
       id="filter9"
       x="-0.038085714"
       y="-0.11833776"
       width="1.0761714"
       height="1.2366755">
      <feGaussianBlur
         inkscape:collect="always"
         stdDeviation="0.48321251"
         id="feGaussianBlur9" />
    </filter>
  </defs>
  <sodipodi:namedview
     id="namedview4"
     pagecolor="#ffffff"
     bordercolor="#666666"
     borderopacity="1.0"
     inkscape:showpageshadow="2"
     inkscape:pageopacity="0.0"
     inkscape:pagecheckerboard="0"
     inkscape:deskcolor="#d1d1d1"
     inkscape:zoom="4.9674251"
     inkscape:cx="-4.2275423"
     inkscape:cy="54.25346"
     inkscape:window-width="1920"
     inkscape:window-height="1030"
     inkscape:window-x="0"
     inkscape:window-y="26"
     inkscape:window-maximized="1"
     inkscape:current-layer="svg4" />
  <rect
     width="53.594307"
     height="53.594307"
     rx="7.1459074"
     fill="#1e88e5"
     id="rect1"
     x="0.14234929"
     y="6.4056945"
     style="stroke-width:0.893239" />
  <path
     d="m 13.540925,24.270462 c 0,-1.480007 1.199709,-2.679714 2.679715,-2.679714 h 21.437723 c 1.480007,0 2.679716,1.199707 2.679716,2.679714 v 17.86477 c 0,1.480007 -1.199709,2.679715 -2.679716,2.679715 H 16.22064 c -1.480006,0 -2.679715,-1.199708 -2.679715,-2.679715 z"
     fill="#ffffff"
     id="path1"
     style="stroke-width:0.893239" />
  <path
     d="m 18.007117,28.736654 h 17.86477 v 1.786478 h -17.86477 z"
     fill="#1e88e5"
     id="path2"
     style="stroke-width:0.893239" />
  <path
     d="m 18.007117,33.202848 h 13.398578 v 1.786476 H 18.007117 Z"
     fill="#1e88e5"
     id="path3"
     style="stroke-width:0.893239" />
  <path
     d="m 18.007117,37.66904 h 8.932386 v 1.786476 h -8.932386 z"
     fill="#1e88e5"
     id="path4"
     style="stroke-width:0.893239" />
  <circle
     cx="22.47331"
     cy="28.736656"
     r="1.7864769"
     fill="#1e88e5"
     id="circle4"
     style="stroke-width:0.893239" />
  <g
     id="g9"
     transform="translate(-1.5658363,-0.21352313)">
    <path
       class="st0"
       d="m 43.310765,28.8992 -12.5,-5.8 c -1.1,-0.5 -1.1,-1.3 0,-1.7 l 4.4,-2 8.1,3.8 c 1.1,0.5 2.8,0.5 3.8,0 l 8.1,-3.8 4.4,2 c 1.1,0.5 1.1,1.3 0,1.7 l -12.5,5.8 c -1,0.4 -2.7,0.4 -3.8,0 z"
       id="path5"
       style="clip-rule:evenodd;mix-blend-mode:normal;fill:#1a1a1a;fill-opacity:0.399186;fill-rule:evenodd;filter:url(#filter9)" />
    <path
       class="st1"
       d="m 43.310765,21.7992 -12.5,-5.8 c -1.1,-0.5 -1.1,-1.3 0,-1.7 l 4.3,-2 8.3,3.8 c 1.1,0.5 2.8,0.5 3.8,0 l 8.3,-3.8 4.3,2 c 1.1,0.5 1.1,1.3 0,1.7 l -12.5,5.8 c -1.2,0.5 -2.9,0.5 -4,0 z"
       id="path6"
       style="clip-rule:evenodd;mix-blend-mode:normal;fill:#1a1a1a;fill-opacity:0.399186;fill-rule:evenodd;filter:url(#filter8)" />
    <path
       class="st0"
       d="m 42.883719,27.689235 -12.5,-5.8 c -1.1,-0.5 -1.1,-1.3 0,-1.7 l 4.4,-2 8.1,3.8 c 1.1,0.5 2.8,0.5 3.8,0 l 8.1,-3.8 4.4,2 c 1.1,0.5 1.1,1.3 0,1.7 l -12.5,5.8 c -1,0.4 -2.7,0.4 -3.8,0 z"
       id="path1-3"
       style="clip-rule:evenodd;fill:#ff6f3d;fill-rule:evenodd" />
    <path
       class="st2"
       d="m 43.310765,14.8992 -12.5,-5.8000004 c -1.1,-0.5 -1.1,-1.3 0,-1.7 l 12.5,-5.8 c 1.1,-0.5 2.8,-0.5 3.8,0 l 12.5,5.8 c 1.1,0.5 1.1,1.3 0,1.7 l -12.5,5.8000004 c -1,0.4 -2.7,0.4 -3.8,0 z"
       id="path7"
       style="clip-rule:evenodd;mix-blend-mode:normal;fill:#1a1a1a;fill-opacity:0.399186;fill-rule:evenodd;filter:url(#filter7)" />
    <path
       class="st1"
       d="m 42.883719,20.589235 -12.5,-5.8 c -1.1,-0.5 -1.1,-1.3 0,-1.7 l 4.3,-2 8.3,3.8 c 1.1,0.5 2.8,0.5 3.8,0 l 8.3,-3.8 4.3,2 c 1.1,0.5 1.1,1.3 0,1.7 l -12.5,5.8 c -1.2,0.5 -2.9,0.5 -4,0 z"
       id="path2-6"
       style="clip-rule:evenodd;fill:#95c038;fill-rule:evenodd" />
    <path
       class="st2"
       d="m 42.883719,13.689235 -12.5,-5.8000001 c -1.1,-0.5 -1.1,-1.3 0,-1.7 l 12.5,-5.80000002 c 1.1,-0.5 2.8,-0.5 3.8,0 l 12.5,5.80000002 c 1.1,0.5 1.1,1.3 0,1.7 l -12.5,5.8000001 c -1,0.4 -2.7,0.4 -3.8,0 z"
       id="path3-7"
       style="clip-rule:evenodd;fill:#5dc0e8;fill-rule:evenodd" />
  </g>
</svg>
