<?xml version="1.0" encoding="UTF-8" standalone="no"?>
<svg
   width="60"
   height="60"
   viewBox="0 0 60 60"
   fill="none"
   version="1.1"
   id="svg4"
   sodipodi:docname="onlyoffice_folder.svg"
   inkscape:version="1.4.2 (1:1.4.2+202505120738+ebf0e940d0)"
   xmlns:inkscape="http://www.inkscape.org/namespaces/inkscape"
   xmlns:sodipodi="http://sodipodi.sourceforge.net/DTD/sodipodi-0.dtd"
   xmlns="http://www.w3.org/2000/svg"
   xmlns:svg="http://www.w3.org/2000/svg">
  <defs
     id="defs4">
    <filter
       inkscape:collect="always"
       style="color-interpolation-filters:sRGB"
       id="filter7"
       x="-0.038085714"
       y="-0.082984613"
       width="1.0761714"
       height="1.1659692">
      <feGaussianBlur
         inkscape:collect="always"
         stdDeviation="0.48321251"
         id="feGaussianBlur7" />
    </filter>
    <filter
       inkscape:collect="always"
       style="color-interpolation-filters:sRGB"
       id="filter8"
       x="-0.037837194"
       y="-0.11743899"
       width="1.0756744"
       height="1.234878">
      <feGaussianBlur
         inkscape:collect="always"
         stdDeviation="0.48321251"
         id="feGaussianBlur8" />
    </filter>
    <filter
       inkscape:collect="always"
       style="color-interpolation-filters:sRGB"
       id="filter9"
       x="-0.038085714"
       y="-0.11833776"
       width="1.0761714"
       height="1.2366755">
      <feGaussianBlur
         inkscape:collect="always"
         stdDeviation="0.48321251"
         id="feGaussianBlur9" />
    </filter>
  </defs>
  <sodipodi:namedview
     id="namedview4"
     pagecolor="#ffffff"
     bordercolor="#666666"
     borderopacity="1.0"
     inkscape:showpageshadow="2"
     inkscape:pageopacity="0.0"
     inkscape:pagecheckerboard="0"
     inkscape:deskcolor="#d1d1d1"
     inkscape:zoom="4.9674251"
     inkscape:cx="0.50327885"
     inkscape:cy="37.242635"
     inkscape:window-width="1920"
     inkscape:window-height="1176"
     inkscape:window-x="1920"
     inkscape:window-y="0"
     inkscape:window-maximized="1"
     inkscape:current-layer="svg4" />
  <rect
     width="53.594307"
     height="53.594307"
     rx="7.1459074"
     fill="#1e88e5"
     id="rect1"
     x="0.14234929"
     y="6.4056945"
     style="stroke-width:0.893239;fill:#f6d768;fill-opacity:1" />
  <g
     id="g2"
     transform="translate(-0.40262224,1.3522955)">
    <path
       d="m 10.923875,24.270462 c 0,-1.480007 1.474597,-2.679714 3.293715,-2.679714 h 26.349725 c 1.819119,0 3.293716,1.199707 3.293716,2.679714 v 17.86477 c 0,1.480007 -1.474597,2.679715 -3.293716,2.679715 H 14.21759 c -1.819118,0 -3.293715,-1.199708 -3.293715,-2.679715 z"
       fill="#ffffff"
       id="path1"
       style="stroke-width:0.9903" />
    <path
       d="m 10.823219,21.565872 c 0,-1.480007 1.474597,-2.679714 3.293715,-2.679714 h 6.520538 c 1.819119,0 3.293716,1.199707 3.293716,2.679714 v 18.656901 c 0,1.480007 -1.474597,2.679715 -3.293716,2.679715 h -6.520538 c -1.819118,0 -3.293715,-1.199708 -3.293715,-2.679715 z"
       fill="#ffffff"
       id="path2"
       style="stroke-width:0.9903"
       sodipodi:nodetypes="sssssssss" />
  </g>
  <g
     id="g9"
     transform="translate(-1.5658363,-0.21352313)">
    <path
       class="st0"
       d="m 43.310765,28.8992 -12.5,-5.8 c -1.1,-0.5 -1.1,-1.3 0,-1.7 l 4.4,-2 8.1,3.8 c 1.1,0.5 2.8,0.5 3.8,0 l 8.1,-3.8 4.4,2 c 1.1,0.5 1.1,1.3 0,1.7 l -12.5,5.8 c -1,0.4 -2.7,0.4 -3.8,0 z"
       id="path5"
       style="clip-rule:evenodd;mix-blend-mode:normal;fill:#1a1a1a;fill-opacity:0.399186;fill-rule:evenodd;filter:url(#filter9)" />
    <path
       class="st1"
       d="m 43.310765,21.7992 -12.5,-5.8 c -1.1,-0.5 -1.1,-1.3 0,-1.7 l 4.3,-2 8.3,3.8 c 1.1,0.5 2.8,0.5 3.8,0 l 8.3,-3.8 4.3,2 c 1.1,0.5 1.1,1.3 0,1.7 l -12.5,5.8 c -1.2,0.5 -2.9,0.5 -4,0 z"
       id="path6"
       style="clip-rule:evenodd;mix-blend-mode:normal;fill:#1a1a1a;fill-opacity:0.399186;fill-rule:evenodd;filter:url(#filter8)" />
    <path
       class="st0"
       d="m 42.883719,27.689235 -12.5,-5.8 c -1.1,-0.5 -1.1,-1.3 0,-1.7 l 4.4,-2 8.1,3.8 c 1.1,0.5 2.8,0.5 3.8,0 l 8.1,-3.8 4.4,2 c 1.1,0.5 1.1,1.3 0,1.7 l -12.5,5.8 c -1,0.4 -2.7,0.4 -3.8,0 z"
       id="path1-3"
       style="clip-rule:evenodd;fill:#ff6f3d;fill-rule:evenodd" />
    <path
       class="st2"
       d="m 43.310765,14.8992 -12.5,-5.8000004 c -1.1,-0.5 -1.1,-1.3 0,-1.7 l 12.5,-5.8 c 1.1,-0.5 2.8,-0.5 3.8,0 l 12.5,5.8 c 1.1,0.5 1.1,1.3 0,1.7 l -12.5,5.8000004 c -1,0.4 -2.7,0.4 -3.8,0 z"
       id="path7"
       style="clip-rule:evenodd;mix-blend-mode:normal;fill:#1a1a1a;fill-opacity:0.399186;fill-rule:evenodd;filter:url(#filter7)" />
    <path
       class="st1"
       d="m 42.883719,20.589235 -12.5,-5.8 c -1.1,-0.5 -1.1,-1.3 0,-1.7 l 4.3,-2 8.3,3.8 c 1.1,0.5 2.8,0.5 3.8,0 l 8.3,-3.8 4.3,2 c 1.1,0.5 1.1,1.3 0,1.7 l -12.5,5.8 c -1.2,0.5 -2.9,0.5 -4,0 z"
       id="path2-6"
       style="clip-rule:evenodd;fill:#95c038;fill-rule:evenodd" />
    <path
       class="st2"
       d="m 42.883719,13.689235 -12.5,-5.8000001 c -1.1,-0.5 -1.1,-1.3 0,-1.7 l 12.5,-5.80000002 c 1.1,-0.5 2.8,-0.5 3.8,0 l 12.5,5.80000002 c 1.1,0.5 1.1,1.3 0,1.7 l -12.5,5.8000001 c -1,0.4 -2.7,0.4 -3.8,0 z"
       id="path3-7"
       style="clip-rule:evenodd;fill:#5dc0e8;fill-rule:evenodd" />
  </g>
</svg>
